HIERARCHY
ROOT root
{
	OFFSET	0	13.1	24.9
	CHANNELS 6  Xposition Yposition Zposition Xrotation Yrotation Zrotation
	JOINT spine_1
	{
		OFFSET	0	9.99999	0
		CHANNELS 3  Xrotation Yrotation Zrotation
		JOINT spine_2
		{
			OFFSET	0	112	-10
			CHANNELS 3  Xrotation Yrotation Zrotation
			JOINT spine_3
			{
				OFFSET	0	206.5	19.3
				CHANNELS 3  Xrotation Yrotation Zrotation
				JOINT spine_4
				{
					OFFSET	0	110.4	14.6
					CHANNELS 3  Xrotation Yrotation Zrotation
					JOINT neck_1
					{
						OFFSET	0	71.8	-50.3
						CHANNELS 3  Xrotation Yrotation Zrotation
						JOINT neck_2
						{
							OFFSET	0	86.2	-25.8
							CHANNELS 3  Xrotation Yrotation Zrotation
							JOINT head_ee
							{
								OFFSET	0	179.8	-8.7
								CHANNELS 3  Xrotation Yrotation Zrotation
								End Site
								{
									OFFSET	1	0	0
								}
							}
						}
					}
					JOINT left_clavicle
					{
						OFFSET	-43.2	22.4	-70.8
						CHANNELS 3  Xrotation Yrotation Zrotation
						JOINT left_shoulder
						{
							OFFSET	-93.9	-5.79999	48.7
							CHANNELS 3  Xrotation Yrotation Zrotation
							JOINT left_elbow
							{
								OFFSET	-291.4	-30.8	15.2
								CHANNELS 3  Xrotation Yrotation Zrotation
								JOINT left_lowarm_twist
								{
									OFFSET	-110.7	-3.89999	13.6
									CHANNELS 3  Xrotation Yrotation Zrotation
									JOINT left_hand
									{
										OFFSET	-110.7	-3.89999	13.6
										CHANNELS 3  Xrotation Yrotation Zrotation
										JOINT left_ee
										{
											OFFSET	-80.8	-5.10001	12.1
											CHANNELS 3  Xrotation Yrotation Zrotation
											End Site
											{
												OFFSET	1	0	0
											}
										}
									}
								}
							}
						}
					}
					JOINT right_clavicle
					{
						OFFSET	43.2	22.4	-70.8
						CHANNELS 3  Xrotation Yrotation Zrotation
						JOINT right_shoulder
						{
							OFFSET	93.9	-5.79999	48.7
							CHANNELS 3  Xrotation Yrotation Zrotation
							JOINT right_elbow
							{
								OFFSET	291.4	-30.8	15.2
								CHANNELS 3  Xrotation Yrotation Zrotation
								JOINT right_lowarm_twist
								{
									OFFSET	110.7	-3.89999	13.6
									CHANNELS 3  Xrotation Yrotation Zrotation
									JOINT right_hand
									{
										OFFSET	110.7	-3.89999	13.6
										CHANNELS 3  Xrotation Yrotation Zrotation
										JOINT right_ee
										{
											OFFSET	80.8	-5.10001	12.1
											CHANNELS 3  Xrotation Yrotation Zrotation
											End Site
											{
												OFFSET	1	0	0
											}
										}
									}
								}
							}
						}
					}
				}
			}
		}
	}
	JOINT left_hip
	{
		OFFSET	-82.8	-127.5	0.300001
		CHANNELS 3  Xrotation Yrotation Zrotation
		JOINT left_knee
		{
			OFFSET	-28.2	-396.7	2.2
			CHANNELS 3  Xrotation Yrotation Zrotation
			JOINT left_ankle
			{
				OFFSET	-11.7	-411.3	35.4
				CHANNELS 3  Xrotation Yrotation Zrotation
				JOINT left_toes
				{
					OFFSET	0	-60	-88.6
					CHANNELS 3  Xrotation Yrotation Zrotation
					JOINT left_foot_ee
					{
						OFFSET	-22.5	-16.5	-42.2
						CHANNELS 3  Xrotation Yrotation Zrotation
						End Site
						{
							OFFSET	1	0	0
						}
					}
				}
			}
		}
	}
	JOINT right_hip
	{
		OFFSET	82.8	-127.5	0.300001
		CHANNELS 3  Xrotation Yrotation Zrotation
		JOINT right_knee
		{
			OFFSET	28.2	-396.7	2.2
			CHANNELS 3  Xrotation Yrotation Zrotation
			JOINT right_ankle
			{
				OFFSET	11.7	-411.3	35.4
				CHANNELS 3  Xrotation Yrotation Zrotation
				JOINT right_toes
				{
					OFFSET	0	-60	-88.6
					CHANNELS 3  Xrotation Yrotation Zrotation
					JOINT right_foot_ee
					{
						OFFSET	22.5	-16.5	-42.2
						CHANNELS 3  Xrotation Yrotation Zrotation
						End Site
						{
							OFFSET	1	0	0
						}
					}
				}
			}
		}
	}
}
MOTION
Frames: 9
Frame Time: 0.02
836.318 675.69 -1329.52 -74.5572 79.0317 72.5128 3.93289 0.155622 1.32974 3.93387 0.0706994 1.33695 3.93497 -0.120673 1.33337 3.9325 0.0914026 1.33569 -13.0296 9.65024 0.012925 -13.2545 18.3536 2.94469 -0.0 0.0 -0.0 -3.34445 12.3336 -4.14706 -32.1024 -53.4 67.734 0.707417 -19.3122 0.120365 -56.9594 -4.90721 4.9965 -0.294177 2.96468 -0.702466 -0.0 0.0 -0.0 10.4464 -16.6406 -18.7569 -21.7008 60.1589 -46.5546 1.09554 28.4877 -0.278114 39.4261 0.31975 4.92826 2.14954 16.0611 -7.58334 0.0 0.0 0.0 35.9622 -8.27188 -1.46135 4.97753 -0.236739 -0.726734 -6.37591 16.3628 0.954001 -17.5 0.0 0.0 -0.0 0.0 -0.0 -3.80303 -10.0543 0.997288 -13.6309 -0.317135 -2.06289 37.6514 16.7151 5.0095 -0.602196 0.0 0.0 0.0 0.0 0.0 
823.813 679.233 -1326.67 -74.3751 77.4898 72.4657 4.06181 0.248905 1.16027 4.06254 0.174574 1.17376 4.06568 0.00814621 1.18664 4.06377 0.195438 1.17046 -12.0868 10.9219 1.91032 -12.2918 19.5041 4.97678 -0.0 0.0 -0.0 -3.54575 12.1011 -4.53477 -29.8286 -52.557 68.5713 0.711309 -19.4105 0.121655 -56.2962 -4.82606 4.97102 -0.198748 -0.0283408 -1.33932 -0.0 0.0 -0.0 10.5742 -17.1256 -18.8958 -22.7854 59.8168 -46.001 1.09798 28.5412 -0.279279 36.7945 0.19312 4.61652 2.08381 13.8737 -8.13578 0.0 0.0 0.0 36.0255 -8.18943 -1.53661 6.03161 -0.294939 -0.877887 -5.426 20.6435 0.821214 -17.001 0.0 0.0 -0.0 0.0 -0.0 -3.11989 -9.84042 1.19593 -12.1368 -0.306454 -1.8339 32.6071 20.5373 4.64042 3.34415 -0.0 -0.0 0.0 0.0 0.0 
810.444 684.228 -1324.05 -73.8761 76.832 72.0593 4.1802 0.259946 1.14746 4.18092 0.186409 1.16167 4.18425 0.0239965 1.17628 4.18238 0.209455 1.15774 -12.759 11.796 3.66912 -12.9807 20.1309 7.03084 -0.0 0.0 -0.0 -3.56893 12.0503 -4.58451 -29.2066 -51.6976 68.4205 0.738583 -20.0962 0.130873 -55.982 -4.78771 4.95862 -0.138796 -1.45121 -1.54294 -0.0 0.0 -0.0 10.4555 -17.6811 -18.6005 -23.0152 59.6321 -46.5402 1.06643 27.8458 -0.264374 35.8667 0.151913 4.50528 2.22733 13.8091 -9.1398 0.0 0.0 0.0 35.6742 -8.21554 -1.71209 5.17245 -0.247291 -0.754765 -7.20742 19.2875 1.08883 -16.697 0.0 0.0 -0.0 0.0 -0.0 -2.75761 -9.423 1.50201 -11.8017 -0.303239 -1.78258 31.4586 22.6732 4.60167 7.71465 -0.0 -0.0 0.0 0.0 0.0 
799.82 694.357 -1317.5 -74.3174 76.5246 72.4133 4.30019 0.181497 1.13691 4.3009 0.108789 1.14616 4.3026 -0.048372 1.15029 4.30078 0.13389 1.1435 -13.037 12.6891 5.42171 -13.2425 20.7791 9.01145 -0.0 0.0 -0.0 -3.72403 12.3245 -4.79096 -27.4097 -51.7267 68.1582 0.754797 -20.5009 0.136498 -54.8405 -4.64896 4.91181 -0.0166599 -4.39961 -1.97567 -0.0 0.0 -0.0 10.552 -19.2501 -18.4873 -24.2588 59.2647 -45.202 1.03142 27.0634 -0.248231 34.2828 0.0857523 4.31392 2.02242 13.0786 -8.077 0.0 0.0 0.0 35.1653 -8.54521 -0.899862 5.8435 -0.284348 -0.85099 -10.7125 24.8543 1.66431 -16.8857 0.0 0.0 -0.0 0.0 -0.0 -2.34132 -8.14088 1.91919 -10.5888 -0.289094 -1.59701 28.4168 23.9825 4.3 10.4569 -0.0 -0.0 0.0 0.0 0.0 
779.143 693.158 -1315.85 -77.439 77.0374 76.287 4.27059 0.136791 1.07435 4.27122 0.0681539 1.08088 4.27209 -0.0803162 1.08004 4.27047 0.091254 1.07917 -13.3355 11.6737 6.55082 -13.441 18.1858 9.79703 -0.0 0.0 -0.0 -4.26121 13.133 -5.52228 -24.5739 -51.892 69.5721 0.717985 -19.5789 0.123883 -57.1605 -4.93188 5.00404 0.771378 -8.67769 1.52368 -0.0 0.0 -0.0 10.408 -19.6512 -18.1794 -25.1318 57.8626 -45.9995 1.02236 26.8591 -0.244123 34.3041 0.0866075 4.3165 2.23939 15.2501 -8.56316 0.0 0.0 0.0 34.1722 -8.70364 -1.27134 5.49966 -0.26522 -0.801738 -9.71281 24.5928 1.50513 -16.2472 0.0 0.0 -0.0 0.0 -0.0 -2.25405 -9.60036 2.00443 -14.8217 -0.321369 -2.24554 28.0849 25.0114 4.30483 14.1984 -0.0 -0.0 0.0 0.0 0.0 
768.756 693.844 -1311.1 -79.0902 76.4568 77.992 4.4321 0.0312306 1.05484 4.43271 -0.0359509 1.05469 4.43162 -0.176981 1.04035 4.43011 -0.0104647 1.05525 -13.6438 12.2077 6.76976 -13.7779 19.1261 10.2261 -0.0 0.0 -0.0 -4.1836 12.631 -5.50316 -22.4712 -51.3465 70.6164 0.728794 -19.8508 0.127529 -56.8659 -4.89576 4.99297 1.15758 -10.8274 3.21025 -0.0 0.0 -0.0 10.4226 -19.787 -18.1787 -25.0804 56.8019 -46.5627 0.996537 26.273 -0.232576 33.6048 0.0590582 4.23147 2.57015 15.6894 -10.6038 0.0 0.0 0.0 33.951 -8.85671 -0.923042 6.97848 -0.349589 -1.01275 -9.69938 25.8179 1.51259 -18.8622 0.0 0.0 -0.0 0.0 -0.0 -1.62226 -9.08934 2.82989 -14.7162 -0.321147 -2.22934 28.9133 25.5874 4.434 17.715 -0.0 -0.0 0.0 0.0 0.0 
758.109 699.328 -1309.45 -81.3795 76.0002 80.2458 4.54653 -0.0359475 1.03309 4.54712 -0.101609 1.02871 4.54487 -0.236586 1.00628 4.54346 -0.0747023 1.03101 -13.059 12.4981 6.79094 -13.1814 19.5633 10.2352 -0.0 0.0 -0.0 -4.22524 12.126 -5.68563 -19.8636 -50.4962 71.5953 0.709048 -19.3534 0.120905 -57.2426 -4.94196 5.00709 1.87047 -12.7308 7.20111 -0.0 0.0 -0.0 10.3206 -16.9442 -18.4929 -26.7449 55.8461 -45.9492 0.947004 25.1317 -0.211092 33.4824 0.054345 4.21656 2.74249 15.9274 -11.6652 0.0 0.0 0.0 33.4843 -8.70765 -0.0620861 8.01749 -0.412122 -1.1597 -12.9353 24.9337 2.0154 -20.3287 0.0 0.0 -0.0 0.0 -0.0 -0.898479 -8.81113 3.17514 -15.8386 -0.32198 -2.40155 27.9247 25.6058 4.31221 18.9869 -0.0 -0.0 0.0 0.0 0.0 
746.212 700.288 -1305.24 -78.5683 75.2499 77.245 4.62356 0.220918 1.09746 4.62422 0.150641 1.10929 4.62663 0.00445234 1.11946 4.62493 0.181184 1.10471 -10.7397 11.5565 7.1241 -10.7198 17.1152 9.90578 -0.0 0.0 -0.0 -4.43684 10.8149 -6.34279 -17.3691 -48.9897 72.3969 0.709604 -19.3675 0.121089 -57.5418 -4.97871 5.0181 2.78388 -13.032 13.3077 -0.0 0.0 -0.0 10.28 -17.9828 -18.255 -27.201 55.1506 -45.9305 0.924314 24.6017 -0.201551 30.1647 -0.0612362 3.80866 3.52255 16.9491 -16.5266 0.0 0.0 0.0 33.668 -8.8917 -0.114765 6.1882 -0.303822 -0.900251 -10.5513 25.4365 1.64387 -20.9983 0.0 0.0 -0.0 0.0 -0.0 -0.63463 -10.0541 4.12029 -15.605 -0.322085 -2.36571 29.3801 27.6102 4.59361 23.3378 -0.0 -0.0 0.0 0.0 0.0 
736.579 704.281 -1301.05 -80.2051 75.4686 78.6395 4.52236 0.0174277 1.23445 4.5232 -0.0611525 1.23305 4.52128 -0.223974 1.21408 4.51922 -0.0294366 1.23422 -10.1724 11.4575 7.25756 -10.1266 16.726 9.92963 -0.0 0.0 -0.0 -4.17477 9.85597 -6.0948 -15.6078 -48.1483 73.7691 0.702847 -19.1966 0.118858 -57.4936 -4.9728 5.01634 3.05686 -14.4037 14.5488 -0.0 0.0 -0.0 10.1532 -17.4181 -18.1334 -27.3743 55.0875 -46.5537 0.911652 24.3039 -0.19631 31.4994 -0.0175824 3.97354 3.53588 17.8061 -16.1849 0.0 0.0 0.0 33.7712 -9.13692 0.50901 5.83468 -0.283854 -0.849727 -14.0351 26.2181 2.20398 -22.2687 0.0 0.0 -0.0 0.0 -0.0 -0.328602 -11.0468 5.59474 -16.1514 -0.321611 -2.44954 29.5236 28.1315 4.63957 25.812 -0.0 -0.0 0.0 0.0 0.0 
